<mxfile host="Electron" agent="Mozilla/5.0 (Macintosh; Intel Mac OS X 10_15_7) AppleWebKit/537.36 (KHTML, like Gecko) draw.io/26.2.2 Chrome/134.0.6998.178 Electron/35.1.2 Safari/537.36" version="26.2.2">
  <diagram name="Page-1" id="ad52d381-51e7-2e0d-a935-2d0ddd2fd229">
    <mxGraphModel dx="4546" dy="2818" grid="1" gridSize="10" guides="1" tooltips="1" connect="1" arrows="1" fold="1" page="1" pageScale="1" pageWidth="1700" pageHeight="1100" background="none" math="0" shadow="0">
      <root>
        <mxCell id="0" />
        <mxCell id="1" parent="0" />
        <mxCell id="2c924340bb9dbf6c-4" value="Convolutional Neural Networks" style="ellipse;whiteSpace=wrap;html=1;rounded=1;shadow=1;comic=0;labelBackgroundColor=none;strokeWidth=2;fontFamily=Verdana;fontSize=12;align=center;" parent="1" vertex="1">
          <mxGeometry x="810" y="485" width="140" height="130" as="geometry" />
        </mxCell>
        <mxCell id="GxN8AK2Fk8kTaYo9k1js-1" value="" style="endArrow=classic;html=1;rounded=0;exitX=0.989;exitY=0.268;exitDx=0;exitDy=0;exitPerimeter=0;entryX=0.5;entryY=1;entryDx=0;entryDy=0;" edge="1" parent="1" source="2c924340bb9dbf6c-4" target="GxN8AK2Fk8kTaYo9k1js-5">
          <mxGeometry relative="1" as="geometry">
            <mxPoint x="980" y="500" as="sourcePoint" />
            <mxPoint x="1120" y="430" as="targetPoint" />
          </mxGeometry>
        </mxCell>
        <mxCell id="GxN8AK2Fk8kTaYo9k1js-2" value="CNN layers" style="edgeLabel;resizable=0;html=1;;align=center;verticalAlign=middle;" connectable="0" vertex="1" parent="GxN8AK2Fk8kTaYo9k1js-1">
          <mxGeometry relative="1" as="geometry" />
        </mxCell>
        <mxCell id="GxN8AK2Fk8kTaYo9k1js-3" value="Conv2D" style="rounded=1;whiteSpace=wrap;html=1;" vertex="1" parent="1">
          <mxGeometry x="1190" y="340" width="120" height="60" as="geometry" />
        </mxCell>
        <mxCell id="GxN8AK2Fk8kTaYo9k1js-4" value="MaxPooling2D" style="rounded=1;whiteSpace=wrap;html=1;" vertex="1" parent="1">
          <mxGeometry x="1190" y="460" width="120" height="60" as="geometry" />
        </mxCell>
        <mxCell id="GxN8AK2Fk8kTaYo9k1js-5" value="" style="shape=partialRectangle;whiteSpace=wrap;html=1;bottom=1;right=1;left=1;top=0;fillColor=none;routingCenterX=-0.5;direction=south;" vertex="1" parent="1">
          <mxGeometry x="1130" y="370" width="60" height="120" as="geometry" />
        </mxCell>
        <mxCell id="GxN8AK2Fk8kTaYo9k1js-6" value="" style="shape=table;startSize=0;container=1;collapsible=0;childLayout=tableLayout;fontSize=16;" vertex="1" parent="1">
          <mxGeometry x="1195" y="200" width="145" height="60" as="geometry" />
        </mxCell>
        <mxCell id="GxN8AK2Fk8kTaYo9k1js-41" style="shape=tableRow;horizontal=0;startSize=0;swimlaneHead=0;swimlaneBody=0;strokeColor=inherit;top=0;left=0;bottom=0;right=0;collapsible=0;dropTarget=0;fillColor=none;points=[[0,0.5],[1,0.5]];portConstraint=eastwest;fontSize=16;" vertex="1" parent="GxN8AK2Fk8kTaYo9k1js-6">
          <mxGeometry width="145" height="12" as="geometry" />
        </mxCell>
        <mxCell id="GxN8AK2Fk8kTaYo9k1js-42" style="shape=partialRectangle;html=1;whiteSpace=wrap;connectable=0;strokeColor=inherit;overflow=hidden;fillColor=none;top=0;left=0;bottom=0;right=0;pointerEvents=1;fontSize=16;" vertex="1" parent="GxN8AK2Fk8kTaYo9k1js-41">
          <mxGeometry width="29" height="12" as="geometry">
            <mxRectangle width="29" height="12" as="alternateBounds" />
          </mxGeometry>
        </mxCell>
        <mxCell id="GxN8AK2Fk8kTaYo9k1js-43" style="shape=partialRectangle;html=1;whiteSpace=wrap;connectable=0;strokeColor=inherit;overflow=hidden;fillColor=none;top=0;left=0;bottom=0;right=0;pointerEvents=1;fontSize=16;" vertex="1" parent="GxN8AK2Fk8kTaYo9k1js-41">
          <mxGeometry x="29" width="29" height="12" as="geometry">
            <mxRectangle width="29" height="12" as="alternateBounds" />
          </mxGeometry>
        </mxCell>
        <mxCell id="GxN8AK2Fk8kTaYo9k1js-44" style="shape=partialRectangle;html=1;whiteSpace=wrap;connectable=0;strokeColor=inherit;overflow=hidden;fillColor=none;top=0;left=0;bottom=0;right=0;pointerEvents=1;fontSize=16;" vertex="1" parent="GxN8AK2Fk8kTaYo9k1js-41">
          <mxGeometry x="58" width="29" height="12" as="geometry">
            <mxRectangle width="29" height="12" as="alternateBounds" />
          </mxGeometry>
        </mxCell>
        <mxCell id="GxN8AK2Fk8kTaYo9k1js-45" style="shape=partialRectangle;html=1;whiteSpace=wrap;connectable=0;strokeColor=inherit;overflow=hidden;fillColor=none;top=0;left=0;bottom=0;right=0;pointerEvents=1;fontSize=16;" vertex="1" parent="GxN8AK2Fk8kTaYo9k1js-41">
          <mxGeometry x="87" width="29" height="12" as="geometry">
            <mxRectangle width="29" height="12" as="alternateBounds" />
          </mxGeometry>
        </mxCell>
        <mxCell id="GxN8AK2Fk8kTaYo9k1js-46" style="shape=partialRectangle;html=1;whiteSpace=wrap;connectable=0;strokeColor=inherit;overflow=hidden;fillColor=none;top=0;left=0;bottom=0;right=0;pointerEvents=1;fontSize=16;" vertex="1" parent="GxN8AK2Fk8kTaYo9k1js-41">
          <mxGeometry x="116" width="29" height="12" as="geometry">
            <mxRectangle width="29" height="12" as="alternateBounds" />
          </mxGeometry>
        </mxCell>
        <mxCell id="GxN8AK2Fk8kTaYo9k1js-35" style="shape=tableRow;horizontal=0;startSize=0;swimlaneHead=0;swimlaneBody=0;strokeColor=inherit;top=0;left=0;bottom=0;right=0;collapsible=0;dropTarget=0;fillColor=none;points=[[0,0.5],[1,0.5]];portConstraint=eastwest;fontSize=16;" vertex="1" parent="GxN8AK2Fk8kTaYo9k1js-6">
          <mxGeometry y="12" width="145" height="13" as="geometry" />
        </mxCell>
        <mxCell id="GxN8AK2Fk8kTaYo9k1js-36" style="shape=partialRectangle;html=1;whiteSpace=wrap;connectable=0;strokeColor=inherit;overflow=hidden;fillColor=none;top=0;left=0;bottom=0;right=0;pointerEvents=1;fontSize=16;" vertex="1" parent="GxN8AK2Fk8kTaYo9k1js-35">
          <mxGeometry width="29" height="13" as="geometry">
            <mxRectangle width="29" height="13" as="alternateBounds" />
          </mxGeometry>
        </mxCell>
        <mxCell id="GxN8AK2Fk8kTaYo9k1js-37" style="shape=partialRectangle;html=1;whiteSpace=wrap;connectable=0;strokeColor=inherit;overflow=hidden;fillColor=none;top=0;left=0;bottom=0;right=0;pointerEvents=1;fontSize=16;" vertex="1" parent="GxN8AK2Fk8kTaYo9k1js-35">
          <mxGeometry x="29" width="29" height="13" as="geometry">
            <mxRectangle width="29" height="13" as="alternateBounds" />
          </mxGeometry>
        </mxCell>
        <mxCell id="GxN8AK2Fk8kTaYo9k1js-38" style="shape=partialRectangle;html=1;whiteSpace=wrap;connectable=0;strokeColor=inherit;overflow=hidden;fillColor=none;top=0;left=0;bottom=0;right=0;pointerEvents=1;fontSize=16;" vertex="1" parent="GxN8AK2Fk8kTaYo9k1js-35">
          <mxGeometry x="58" width="29" height="13" as="geometry">
            <mxRectangle width="29" height="13" as="alternateBounds" />
          </mxGeometry>
        </mxCell>
        <mxCell id="GxN8AK2Fk8kTaYo9k1js-39" style="shape=partialRectangle;html=1;whiteSpace=wrap;connectable=0;strokeColor=inherit;overflow=hidden;fillColor=none;top=0;left=0;bottom=0;right=0;pointerEvents=1;fontSize=16;" vertex="1" parent="GxN8AK2Fk8kTaYo9k1js-35">
          <mxGeometry x="87" width="29" height="13" as="geometry">
            <mxRectangle width="29" height="13" as="alternateBounds" />
          </mxGeometry>
        </mxCell>
        <mxCell id="GxN8AK2Fk8kTaYo9k1js-40" style="shape=partialRectangle;html=1;whiteSpace=wrap;connectable=0;strokeColor=inherit;overflow=hidden;fillColor=none;top=0;left=0;bottom=0;right=0;pointerEvents=1;fontSize=16;" vertex="1" parent="GxN8AK2Fk8kTaYo9k1js-35">
          <mxGeometry x="116" width="29" height="13" as="geometry">
            <mxRectangle width="29" height="13" as="alternateBounds" />
          </mxGeometry>
        </mxCell>
        <mxCell id="GxN8AK2Fk8kTaYo9k1js-29" style="shape=tableRow;horizontal=0;startSize=0;swimlaneHead=0;swimlaneBody=0;strokeColor=inherit;top=0;left=0;bottom=0;right=0;collapsible=0;dropTarget=0;fillColor=none;points=[[0,0.5],[1,0.5]];portConstraint=eastwest;fontSize=16;" vertex="1" parent="GxN8AK2Fk8kTaYo9k1js-6">
          <mxGeometry y="25" width="145" height="12" as="geometry" />
        </mxCell>
        <mxCell id="GxN8AK2Fk8kTaYo9k1js-30" style="shape=partialRectangle;html=1;whiteSpace=wrap;connectable=0;strokeColor=inherit;overflow=hidden;fillColor=none;top=0;left=0;bottom=0;right=0;pointerEvents=1;fontSize=16;" vertex="1" parent="GxN8AK2Fk8kTaYo9k1js-29">
          <mxGeometry width="29" height="12" as="geometry">
            <mxRectangle width="29" height="12" as="alternateBounds" />
          </mxGeometry>
        </mxCell>
        <mxCell id="GxN8AK2Fk8kTaYo9k1js-31" style="shape=partialRectangle;html=1;whiteSpace=wrap;connectable=0;strokeColor=inherit;overflow=hidden;fillColor=none;top=0;left=0;bottom=0;right=0;pointerEvents=1;fontSize=16;" vertex="1" parent="GxN8AK2Fk8kTaYo9k1js-29">
          <mxGeometry x="29" width="29" height="12" as="geometry">
            <mxRectangle width="29" height="12" as="alternateBounds" />
          </mxGeometry>
        </mxCell>
        <mxCell id="GxN8AK2Fk8kTaYo9k1js-32" style="shape=partialRectangle;html=1;whiteSpace=wrap;connectable=0;strokeColor=inherit;overflow=hidden;fillColor=none;top=0;left=0;bottom=0;right=0;pointerEvents=1;fontSize=16;" vertex="1" parent="GxN8AK2Fk8kTaYo9k1js-29">
          <mxGeometry x="58" width="29" height="12" as="geometry">
            <mxRectangle width="29" height="12" as="alternateBounds" />
          </mxGeometry>
        </mxCell>
        <mxCell id="GxN8AK2Fk8kTaYo9k1js-33" style="shape=partialRectangle;html=1;whiteSpace=wrap;connectable=0;strokeColor=inherit;overflow=hidden;fillColor=none;top=0;left=0;bottom=0;right=0;pointerEvents=1;fontSize=16;" vertex="1" parent="GxN8AK2Fk8kTaYo9k1js-29">
          <mxGeometry x="87" width="29" height="12" as="geometry">
            <mxRectangle width="29" height="12" as="alternateBounds" />
          </mxGeometry>
        </mxCell>
        <mxCell id="GxN8AK2Fk8kTaYo9k1js-34" style="shape=partialRectangle;html=1;whiteSpace=wrap;connectable=0;strokeColor=inherit;overflow=hidden;fillColor=none;top=0;left=0;bottom=0;right=0;pointerEvents=1;fontSize=16;" vertex="1" parent="GxN8AK2Fk8kTaYo9k1js-29">
          <mxGeometry x="116" width="29" height="12" as="geometry">
            <mxRectangle width="29" height="12" as="alternateBounds" />
          </mxGeometry>
        </mxCell>
        <mxCell id="GxN8AK2Fk8kTaYo9k1js-7" value="" style="shape=tableRow;horizontal=0;startSize=0;swimlaneHead=0;swimlaneBody=0;strokeColor=inherit;top=0;left=0;bottom=0;right=0;collapsible=0;dropTarget=0;fillColor=none;points=[[0,0.5],[1,0.5]];portConstraint=eastwest;fontSize=16;" vertex="1" parent="GxN8AK2Fk8kTaYo9k1js-6">
          <mxGeometry y="37" width="145" height="12" as="geometry" />
        </mxCell>
        <mxCell id="GxN8AK2Fk8kTaYo9k1js-26" style="shape=partialRectangle;html=1;whiteSpace=wrap;connectable=0;strokeColor=inherit;overflow=hidden;fillColor=none;top=0;left=0;bottom=0;right=0;pointerEvents=1;fontSize=16;" vertex="1" parent="GxN8AK2Fk8kTaYo9k1js-7">
          <mxGeometry width="29" height="12" as="geometry">
            <mxRectangle width="29" height="12" as="alternateBounds" />
          </mxGeometry>
        </mxCell>
        <mxCell id="GxN8AK2Fk8kTaYo9k1js-23" style="shape=partialRectangle;html=1;whiteSpace=wrap;connectable=0;strokeColor=inherit;overflow=hidden;fillColor=none;top=0;left=0;bottom=0;right=0;pointerEvents=1;fontSize=16;" vertex="1" parent="GxN8AK2Fk8kTaYo9k1js-7">
          <mxGeometry x="29" width="29" height="12" as="geometry">
            <mxRectangle width="29" height="12" as="alternateBounds" />
          </mxGeometry>
        </mxCell>
        <mxCell id="GxN8AK2Fk8kTaYo9k1js-8" value="" style="shape=partialRectangle;html=1;whiteSpace=wrap;connectable=0;strokeColor=inherit;overflow=hidden;fillColor=none;top=0;left=0;bottom=0;right=0;pointerEvents=1;fontSize=16;" vertex="1" parent="GxN8AK2Fk8kTaYo9k1js-7">
          <mxGeometry x="58" width="29" height="12" as="geometry">
            <mxRectangle width="29" height="12" as="alternateBounds" />
          </mxGeometry>
        </mxCell>
        <mxCell id="GxN8AK2Fk8kTaYo9k1js-9" value="" style="shape=partialRectangle;html=1;whiteSpace=wrap;connectable=0;strokeColor=inherit;overflow=hidden;fillColor=none;top=0;left=0;bottom=0;right=0;pointerEvents=1;fontSize=16;" vertex="1" parent="GxN8AK2Fk8kTaYo9k1js-7">
          <mxGeometry x="87" width="29" height="12" as="geometry">
            <mxRectangle width="29" height="12" as="alternateBounds" />
          </mxGeometry>
        </mxCell>
        <mxCell id="GxN8AK2Fk8kTaYo9k1js-10" value="" style="shape=partialRectangle;html=1;whiteSpace=wrap;connectable=0;strokeColor=inherit;overflow=hidden;fillColor=none;top=0;left=0;bottom=0;right=0;pointerEvents=1;fontSize=16;" vertex="1" parent="GxN8AK2Fk8kTaYo9k1js-7">
          <mxGeometry x="116" width="29" height="12" as="geometry">
            <mxRectangle width="29" height="12" as="alternateBounds" />
          </mxGeometry>
        </mxCell>
        <mxCell id="GxN8AK2Fk8kTaYo9k1js-11" value="" style="shape=tableRow;horizontal=0;startSize=0;swimlaneHead=0;swimlaneBody=0;strokeColor=inherit;top=0;left=0;bottom=0;right=0;collapsible=0;dropTarget=0;fillColor=none;points=[[0,0.5],[1,0.5]];portConstraint=eastwest;fontSize=16;" vertex="1" parent="GxN8AK2Fk8kTaYo9k1js-6">
          <mxGeometry y="49" width="145" height="11" as="geometry" />
        </mxCell>
        <mxCell id="GxN8AK2Fk8kTaYo9k1js-27" style="shape=partialRectangle;html=1;whiteSpace=wrap;connectable=0;strokeColor=inherit;overflow=hidden;fillColor=none;top=0;left=0;bottom=0;right=0;pointerEvents=1;fontSize=16;" vertex="1" parent="GxN8AK2Fk8kTaYo9k1js-11">
          <mxGeometry width="29" height="11" as="geometry">
            <mxRectangle width="29" height="11" as="alternateBounds" />
          </mxGeometry>
        </mxCell>
        <mxCell id="GxN8AK2Fk8kTaYo9k1js-24" style="shape=partialRectangle;html=1;whiteSpace=wrap;connectable=0;strokeColor=inherit;overflow=hidden;fillColor=none;top=0;left=0;bottom=0;right=0;pointerEvents=1;fontSize=16;" vertex="1" parent="GxN8AK2Fk8kTaYo9k1js-11">
          <mxGeometry x="29" width="29" height="11" as="geometry">
            <mxRectangle width="29" height="11" as="alternateBounds" />
          </mxGeometry>
        </mxCell>
        <mxCell id="GxN8AK2Fk8kTaYo9k1js-12" value="" style="shape=partialRectangle;html=1;whiteSpace=wrap;connectable=0;strokeColor=inherit;overflow=hidden;fillColor=none;top=0;left=0;bottom=0;right=0;pointerEvents=1;fontSize=16;" vertex="1" parent="GxN8AK2Fk8kTaYo9k1js-11">
          <mxGeometry x="58" width="29" height="11" as="geometry">
            <mxRectangle width="29" height="11" as="alternateBounds" />
          </mxGeometry>
        </mxCell>
        <mxCell id="GxN8AK2Fk8kTaYo9k1js-13" value="" style="shape=partialRectangle;html=1;whiteSpace=wrap;connectable=0;strokeColor=inherit;overflow=hidden;fillColor=none;top=0;left=0;bottom=0;right=0;pointerEvents=1;fontSize=16;" vertex="1" parent="GxN8AK2Fk8kTaYo9k1js-11">
          <mxGeometry x="87" width="29" height="11" as="geometry">
            <mxRectangle width="29" height="11" as="alternateBounds" />
          </mxGeometry>
        </mxCell>
        <mxCell id="GxN8AK2Fk8kTaYo9k1js-14" value="" style="shape=partialRectangle;html=1;whiteSpace=wrap;connectable=0;strokeColor=inherit;overflow=hidden;fillColor=none;top=0;left=0;bottom=0;right=0;pointerEvents=1;fontSize=16;" vertex="1" parent="GxN8AK2Fk8kTaYo9k1js-11">
          <mxGeometry x="116" width="29" height="11" as="geometry">
            <mxRectangle width="29" height="11" as="alternateBounds" />
          </mxGeometry>
        </mxCell>
        <mxCell id="GxN8AK2Fk8kTaYo9k1js-21" value="" style="endArrow=classic;html=1;rounded=0;exitX=0.5;exitY=0;exitDx=0;exitDy=0;entryX=0.5;entryY=1;entryDx=0;entryDy=0;" edge="1" parent="1" source="GxN8AK2Fk8kTaYo9k1js-3" target="GxN8AK2Fk8kTaYo9k1js-6">
          <mxGeometry relative="1" as="geometry">
            <mxPoint x="1110" y="320" as="sourcePoint" />
            <mxPoint x="1210" y="320" as="targetPoint" />
          </mxGeometry>
        </mxCell>
        <mxCell id="GxN8AK2Fk8kTaYo9k1js-22" value="Conv operation" style="edgeLabel;resizable=0;html=1;;align=center;verticalAlign=middle;" connectable="0" vertex="1" parent="GxN8AK2Fk8kTaYo9k1js-21">
          <mxGeometry relative="1" as="geometry" />
        </mxCell>
        <mxCell id="GxN8AK2Fk8kTaYo9k1js-47" value="" style="verticalLabelPosition=bottom;verticalAlign=top;html=1;shape=mxgraph.basic.x" vertex="1" parent="1">
          <mxGeometry x="1238" y="160" width="46" height="20" as="geometry" />
        </mxCell>
        <mxCell id="GxN8AK2Fk8kTaYo9k1js-48" value="" style="shape=table;startSize=0;container=1;collapsible=0;childLayout=tableLayout;fontSize=16;" vertex="1" parent="1">
          <mxGeometry x="1210" y="90" width="102" height="50" as="geometry" />
        </mxCell>
        <mxCell id="GxN8AK2Fk8kTaYo9k1js-49" value="" style="shape=tableRow;horizontal=0;startSize=0;swimlaneHead=0;swimlaneBody=0;strokeColor=inherit;top=0;left=0;bottom=0;right=0;collapsible=0;dropTarget=0;fillColor=none;points=[[0,0.5],[1,0.5]];portConstraint=eastwest;fontSize=16;" vertex="1" parent="GxN8AK2Fk8kTaYo9k1js-48">
          <mxGeometry width="102" height="17" as="geometry" />
        </mxCell>
        <mxCell id="GxN8AK2Fk8kTaYo9k1js-50" value="" style="shape=partialRectangle;html=1;whiteSpace=wrap;connectable=0;strokeColor=inherit;overflow=hidden;fillColor=none;top=0;left=0;bottom=0;right=0;pointerEvents=1;fontSize=16;" vertex="1" parent="GxN8AK2Fk8kTaYo9k1js-49">
          <mxGeometry width="34" height="17" as="geometry">
            <mxRectangle width="34" height="17" as="alternateBounds" />
          </mxGeometry>
        </mxCell>
        <mxCell id="GxN8AK2Fk8kTaYo9k1js-51" value="" style="shape=partialRectangle;html=1;whiteSpace=wrap;connectable=0;strokeColor=inherit;overflow=hidden;fillColor=none;top=0;left=0;bottom=0;right=0;pointerEvents=1;fontSize=16;" vertex="1" parent="GxN8AK2Fk8kTaYo9k1js-49">
          <mxGeometry x="34" width="34" height="17" as="geometry">
            <mxRectangle width="34" height="17" as="alternateBounds" />
          </mxGeometry>
        </mxCell>
        <mxCell id="GxN8AK2Fk8kTaYo9k1js-52" value="" style="shape=partialRectangle;html=1;whiteSpace=wrap;connectable=0;strokeColor=inherit;overflow=hidden;fillColor=none;top=0;left=0;bottom=0;right=0;pointerEvents=1;fontSize=16;" vertex="1" parent="GxN8AK2Fk8kTaYo9k1js-49">
          <mxGeometry x="68" width="34" height="17" as="geometry">
            <mxRectangle width="34" height="17" as="alternateBounds" />
          </mxGeometry>
        </mxCell>
        <mxCell id="GxN8AK2Fk8kTaYo9k1js-53" value="" style="shape=tableRow;horizontal=0;startSize=0;swimlaneHead=0;swimlaneBody=0;strokeColor=inherit;top=0;left=0;bottom=0;right=0;collapsible=0;dropTarget=0;fillColor=none;points=[[0,0.5],[1,0.5]];portConstraint=eastwest;fontSize=16;" vertex="1" parent="GxN8AK2Fk8kTaYo9k1js-48">
          <mxGeometry y="17" width="102" height="16" as="geometry" />
        </mxCell>
        <mxCell id="GxN8AK2Fk8kTaYo9k1js-54" value="" style="shape=partialRectangle;html=1;whiteSpace=wrap;connectable=0;strokeColor=inherit;overflow=hidden;fillColor=none;top=0;left=0;bottom=0;right=0;pointerEvents=1;fontSize=16;" vertex="1" parent="GxN8AK2Fk8kTaYo9k1js-53">
          <mxGeometry width="34" height="16" as="geometry">
            <mxRectangle width="34" height="16" as="alternateBounds" />
          </mxGeometry>
        </mxCell>
        <mxCell id="GxN8AK2Fk8kTaYo9k1js-55" value="" style="shape=partialRectangle;html=1;whiteSpace=wrap;connectable=0;strokeColor=inherit;overflow=hidden;fillColor=none;top=0;left=0;bottom=0;right=0;pointerEvents=1;fontSize=16;" vertex="1" parent="GxN8AK2Fk8kTaYo9k1js-53">
          <mxGeometry x="34" width="34" height="16" as="geometry">
            <mxRectangle width="34" height="16" as="alternateBounds" />
          </mxGeometry>
        </mxCell>
        <mxCell id="GxN8AK2Fk8kTaYo9k1js-56" value="" style="shape=partialRectangle;html=1;whiteSpace=wrap;connectable=0;strokeColor=inherit;overflow=hidden;fillColor=none;top=0;left=0;bottom=0;right=0;pointerEvents=1;fontSize=16;" vertex="1" parent="GxN8AK2Fk8kTaYo9k1js-53">
          <mxGeometry x="68" width="34" height="16" as="geometry">
            <mxRectangle width="34" height="16" as="alternateBounds" />
          </mxGeometry>
        </mxCell>
        <mxCell id="GxN8AK2Fk8kTaYo9k1js-57" value="" style="shape=tableRow;horizontal=0;startSize=0;swimlaneHead=0;swimlaneBody=0;strokeColor=inherit;top=0;left=0;bottom=0;right=0;collapsible=0;dropTarget=0;fillColor=none;points=[[0,0.5],[1,0.5]];portConstraint=eastwest;fontSize=16;" vertex="1" parent="GxN8AK2Fk8kTaYo9k1js-48">
          <mxGeometry y="33" width="102" height="17" as="geometry" />
        </mxCell>
        <mxCell id="GxN8AK2Fk8kTaYo9k1js-58" value="" style="shape=partialRectangle;html=1;whiteSpace=wrap;connectable=0;strokeColor=inherit;overflow=hidden;fillColor=none;top=0;left=0;bottom=0;right=0;pointerEvents=1;fontSize=16;" vertex="1" parent="GxN8AK2Fk8kTaYo9k1js-57">
          <mxGeometry width="34" height="17" as="geometry">
            <mxRectangle width="34" height="17" as="alternateBounds" />
          </mxGeometry>
        </mxCell>
        <mxCell id="GxN8AK2Fk8kTaYo9k1js-59" value="" style="shape=partialRectangle;html=1;whiteSpace=wrap;connectable=0;strokeColor=inherit;overflow=hidden;fillColor=none;top=0;left=0;bottom=0;right=0;pointerEvents=1;fontSize=16;" vertex="1" parent="GxN8AK2Fk8kTaYo9k1js-57">
          <mxGeometry x="34" width="34" height="17" as="geometry">
            <mxRectangle width="34" height="17" as="alternateBounds" />
          </mxGeometry>
        </mxCell>
        <mxCell id="GxN8AK2Fk8kTaYo9k1js-60" value="" style="shape=partialRectangle;html=1;whiteSpace=wrap;connectable=0;strokeColor=inherit;overflow=hidden;fillColor=none;top=0;left=0;bottom=0;right=0;pointerEvents=1;fontSize=16;" vertex="1" parent="GxN8AK2Fk8kTaYo9k1js-57">
          <mxGeometry x="68" width="34" height="17" as="geometry">
            <mxRectangle width="34" height="17" as="alternateBounds" />
          </mxGeometry>
        </mxCell>
        <mxCell id="GxN8AK2Fk8kTaYo9k1js-61" value="" style="shape=singleArrow;direction=north;whiteSpace=wrap;html=1;" vertex="1" parent="1">
          <mxGeometry x="1241.5" y="40" width="39" height="30" as="geometry" />
        </mxCell>
        <mxCell id="GxN8AK2Fk8kTaYo9k1js-62" value="" style="shape=table;startSize=0;container=1;collapsible=0;childLayout=tableLayout;fontSize=16;" vertex="1" parent="1">
          <mxGeometry x="1196.5" y="-30" width="129" height="40" as="geometry" />
        </mxCell>
        <mxCell id="GxN8AK2Fk8kTaYo9k1js-63" value="" style="shape=tableRow;horizontal=0;startSize=0;swimlaneHead=0;swimlaneBody=0;strokeColor=inherit;top=0;left=0;bottom=0;right=0;collapsible=0;dropTarget=0;fillColor=none;points=[[0,0.5],[1,0.5]];portConstraint=eastwest;fontSize=16;" vertex="1" parent="GxN8AK2Fk8kTaYo9k1js-62">
          <mxGeometry width="129" height="13" as="geometry" />
        </mxCell>
        <mxCell id="GxN8AK2Fk8kTaYo9k1js-64" value="" style="shape=partialRectangle;html=1;whiteSpace=wrap;connectable=0;strokeColor=inherit;overflow=hidden;fillColor=none;top=0;left=0;bottom=0;right=0;pointerEvents=1;fontSize=16;" vertex="1" parent="GxN8AK2Fk8kTaYo9k1js-63">
          <mxGeometry width="43" height="13" as="geometry">
            <mxRectangle width="43" height="13" as="alternateBounds" />
          </mxGeometry>
        </mxCell>
        <mxCell id="GxN8AK2Fk8kTaYo9k1js-65" value="" style="shape=partialRectangle;html=1;whiteSpace=wrap;connectable=0;strokeColor=inherit;overflow=hidden;fillColor=none;top=0;left=0;bottom=0;right=0;pointerEvents=1;fontSize=16;" vertex="1" parent="GxN8AK2Fk8kTaYo9k1js-63">
          <mxGeometry x="43" width="43" height="13" as="geometry">
            <mxRectangle width="43" height="13" as="alternateBounds" />
          </mxGeometry>
        </mxCell>
        <mxCell id="GxN8AK2Fk8kTaYo9k1js-66" value="" style="shape=partialRectangle;html=1;whiteSpace=wrap;connectable=0;strokeColor=inherit;overflow=hidden;fillColor=none;top=0;left=0;bottom=0;right=0;pointerEvents=1;fontSize=16;" vertex="1" parent="GxN8AK2Fk8kTaYo9k1js-63">
          <mxGeometry x="86" width="43" height="13" as="geometry">
            <mxRectangle width="43" height="13" as="alternateBounds" />
          </mxGeometry>
        </mxCell>
        <mxCell id="GxN8AK2Fk8kTaYo9k1js-67" value="" style="shape=tableRow;horizontal=0;startSize=0;swimlaneHead=0;swimlaneBody=0;strokeColor=inherit;top=0;left=0;bottom=0;right=0;collapsible=0;dropTarget=0;fillColor=none;points=[[0,0.5],[1,0.5]];portConstraint=eastwest;fontSize=16;" vertex="1" parent="GxN8AK2Fk8kTaYo9k1js-62">
          <mxGeometry y="13" width="129" height="14" as="geometry" />
        </mxCell>
        <mxCell id="GxN8AK2Fk8kTaYo9k1js-68" value="" style="shape=partialRectangle;html=1;whiteSpace=wrap;connectable=0;strokeColor=inherit;overflow=hidden;fillColor=none;top=0;left=0;bottom=0;right=0;pointerEvents=1;fontSize=16;" vertex="1" parent="GxN8AK2Fk8kTaYo9k1js-67">
          <mxGeometry width="43" height="14" as="geometry">
            <mxRectangle width="43" height="14" as="alternateBounds" />
          </mxGeometry>
        </mxCell>
        <mxCell id="GxN8AK2Fk8kTaYo9k1js-69" value="" style="shape=partialRectangle;html=1;whiteSpace=wrap;connectable=0;strokeColor=inherit;overflow=hidden;fillColor=none;top=0;left=0;bottom=0;right=0;pointerEvents=1;fontSize=16;" vertex="1" parent="GxN8AK2Fk8kTaYo9k1js-67">
          <mxGeometry x="43" width="43" height="14" as="geometry">
            <mxRectangle width="43" height="14" as="alternateBounds" />
          </mxGeometry>
        </mxCell>
        <mxCell id="GxN8AK2Fk8kTaYo9k1js-70" value="" style="shape=partialRectangle;html=1;whiteSpace=wrap;connectable=0;strokeColor=inherit;overflow=hidden;fillColor=none;top=0;left=0;bottom=0;right=0;pointerEvents=1;fontSize=16;" vertex="1" parent="GxN8AK2Fk8kTaYo9k1js-67">
          <mxGeometry x="86" width="43" height="14" as="geometry">
            <mxRectangle width="43" height="14" as="alternateBounds" />
          </mxGeometry>
        </mxCell>
        <mxCell id="GxN8AK2Fk8kTaYo9k1js-71" value="" style="shape=tableRow;horizontal=0;startSize=0;swimlaneHead=0;swimlaneBody=0;strokeColor=inherit;top=0;left=0;bottom=0;right=0;collapsible=0;dropTarget=0;fillColor=none;points=[[0,0.5],[1,0.5]];portConstraint=eastwest;fontSize=16;" vertex="1" parent="GxN8AK2Fk8kTaYo9k1js-62">
          <mxGeometry y="27" width="129" height="13" as="geometry" />
        </mxCell>
        <mxCell id="GxN8AK2Fk8kTaYo9k1js-72" value="" style="shape=partialRectangle;html=1;whiteSpace=wrap;connectable=0;strokeColor=inherit;overflow=hidden;fillColor=none;top=0;left=0;bottom=0;right=0;pointerEvents=1;fontSize=16;" vertex="1" parent="GxN8AK2Fk8kTaYo9k1js-71">
          <mxGeometry width="43" height="13" as="geometry">
            <mxRectangle width="43" height="13" as="alternateBounds" />
          </mxGeometry>
        </mxCell>
        <mxCell id="GxN8AK2Fk8kTaYo9k1js-73" value="" style="shape=partialRectangle;html=1;whiteSpace=wrap;connectable=0;strokeColor=inherit;overflow=hidden;fillColor=none;top=0;left=0;bottom=0;right=0;pointerEvents=1;fontSize=16;" vertex="1" parent="GxN8AK2Fk8kTaYo9k1js-71">
          <mxGeometry x="43" width="43" height="13" as="geometry">
            <mxRectangle width="43" height="13" as="alternateBounds" />
          </mxGeometry>
        </mxCell>
        <mxCell id="GxN8AK2Fk8kTaYo9k1js-74" value="" style="shape=partialRectangle;html=1;whiteSpace=wrap;connectable=0;strokeColor=inherit;overflow=hidden;fillColor=none;top=0;left=0;bottom=0;right=0;pointerEvents=1;fontSize=16;" vertex="1" parent="GxN8AK2Fk8kTaYo9k1js-71">
          <mxGeometry x="86" width="43" height="13" as="geometry">
            <mxRectangle width="43" height="13" as="alternateBounds" />
          </mxGeometry>
        </mxCell>
        <mxCell id="GxN8AK2Fk8kTaYo9k1js-75" value="&lt;div&gt;Input&lt;/div&gt;5 x 5" style="ellipse;shape=cloud;whiteSpace=wrap;html=1;" vertex="1" parent="1">
          <mxGeometry x="1370" y="191" width="120" height="80" as="geometry" />
        </mxCell>
        <mxCell id="GxN8AK2Fk8kTaYo9k1js-76" value="Filter&lt;div&gt;3 x 3&lt;/div&gt;" style="ellipse;shape=cloud;whiteSpace=wrap;html=1;" vertex="1" parent="1">
          <mxGeometry x="1360" y="70" width="120" height="80" as="geometry" />
        </mxCell>
        <mxCell id="GxN8AK2Fk8kTaYo9k1js-77" value="output&lt;div&gt;3 x 3&lt;/div&gt;" style="ellipse;shape=cloud;whiteSpace=wrap;html=1;" vertex="1" parent="1">
          <mxGeometry x="1360" y="-40" width="120" height="80" as="geometry" />
        </mxCell>
        <mxCell id="GxN8AK2Fk8kTaYo9k1js-78" value="" style="endArrow=classic;html=1;rounded=0;exitX=0.317;exitY=0.99;exitDx=0;exitDy=0;exitPerimeter=0;entryX=1;entryY=0;entryDx=0;entryDy=0;" edge="1" parent="1" source="2c924340bb9dbf6c-4" target="GxN8AK2Fk8kTaYo9k1js-82">
          <mxGeometry relative="1" as="geometry">
            <mxPoint x="770" y="690" as="sourcePoint" />
            <mxPoint x="780" y="720" as="targetPoint" />
          </mxGeometry>
        </mxCell>
        <mxCell id="GxN8AK2Fk8kTaYo9k1js-79" value="&lt;b&gt;&lt;font style=&quot;font-size: 13px;&quot;&gt;Translation invariant&lt;/font&gt;&lt;/b&gt;" style="edgeLabel;resizable=0;html=1;;align=center;verticalAlign=middle;" connectable="0" vertex="1" parent="GxN8AK2Fk8kTaYo9k1js-78">
          <mxGeometry relative="1" as="geometry" />
        </mxCell>
        <mxCell id="GxN8AK2Fk8kTaYo9k1js-80" value="" style="endArrow=classic;html=1;rounded=0;exitX=1;exitY=1;exitDx=0;exitDy=0;" edge="1" parent="1" source="2c924340bb9dbf6c-4">
          <mxGeometry relative="1" as="geometry">
            <mxPoint x="940" y="630" as="sourcePoint" />
            <mxPoint x="1040" y="720" as="targetPoint" />
          </mxGeometry>
        </mxCell>
        <mxCell id="GxN8AK2Fk8kTaYo9k1js-81" value="&lt;b&gt;&lt;font style=&quot;font-size: 13px;&quot;&gt;Spatial hierarchies&lt;/font&gt;&lt;/b&gt;" style="edgeLabel;resizable=0;html=1;;align=center;verticalAlign=middle;" connectable="0" vertex="1" parent="GxN8AK2Fk8kTaYo9k1js-80">
          <mxGeometry relative="1" as="geometry" />
        </mxCell>
        <mxCell id="GxN8AK2Fk8kTaYo9k1js-82" value="" style="swimlane;startSize=0;" vertex="1" parent="1">
          <mxGeometry x="590" y="720" width="180" height="110" as="geometry" />
        </mxCell>
        <mxCell id="GxN8AK2Fk8kTaYo9k1js-83" value="Patterns recognized anywhere&lt;div&gt;Generalization power&lt;/div&gt;" style="text;html=1;align=center;verticalAlign=middle;resizable=0;points=[];autosize=1;strokeColor=none;fillColor=none;" vertex="1" parent="1">
          <mxGeometry x="585" y="753" width="190" height="40" as="geometry" />
        </mxCell>
        <mxCell id="GxN8AK2Fk8kTaYo9k1js-84" value="" style="swimlane;startSize=0;" vertex="1" parent="1">
          <mxGeometry x="1044" y="720" width="186" height="110" as="geometry" />
        </mxCell>
        <mxCell id="GxN8AK2Fk8kTaYo9k1js-85" value="All shapes are formed by basic&lt;div&gt;lines or textures&lt;/div&gt;" style="text;html=1;align=center;verticalAlign=middle;resizable=0;points=[];autosize=1;strokeColor=none;fillColor=none;" vertex="1" parent="1">
          <mxGeometry x="1045" y="753" width="190" height="40" as="geometry" />
        </mxCell>
        <mxCell id="GxN8AK2Fk8kTaYo9k1js-86" value="" style="endArrow=classic;html=1;rounded=0;" edge="1" parent="1">
          <mxGeometry relative="1" as="geometry">
            <mxPoint x="1510" y="230" as="sourcePoint" />
            <mxPoint x="1640" y="230" as="targetPoint" />
          </mxGeometry>
        </mxCell>
        <mxCell id="GxN8AK2Fk8kTaYo9k1js-87" value="feature map" style="edgeLabel;resizable=0;html=1;;align=center;verticalAlign=middle;" connectable="0" vertex="1" parent="GxN8AK2Fk8kTaYo9k1js-86">
          <mxGeometry relative="1" as="geometry" />
        </mxCell>
        <mxCell id="GxN8AK2Fk8kTaYo9k1js-88" value="rank 3 tensor&lt;div&gt;(height, width, depth (channel))&lt;/div&gt;" style="ellipse;whiteSpace=wrap;html=1;" vertex="1" parent="1">
          <mxGeometry x="1660" y="190" width="190" height="100" as="geometry" />
        </mxCell>
        <mxCell id="GxN8AK2Fk8kTaYo9k1js-89" value="" style="endArrow=classic;html=1;rounded=0;" edge="1" parent="1">
          <mxGeometry relative="1" as="geometry">
            <mxPoint x="1520" y="110" as="sourcePoint" />
            <mxPoint x="1640" y="110" as="targetPoint" />
          </mxGeometry>
        </mxCell>
        <mxCell id="GxN8AK2Fk8kTaYo9k1js-91" value="encodes specific aspects of input data - &quot;presence of face in input&quot;" style="ellipse;whiteSpace=wrap;html=1;" vertex="1" parent="1">
          <mxGeometry x="1660" y="70" width="190" height="80" as="geometry" />
        </mxCell>
        <mxCell id="GxN8AK2Fk8kTaYo9k1js-92" value="" style="endArrow=classic;html=1;rounded=0;" edge="1" parent="1">
          <mxGeometry relative="1" as="geometry">
            <mxPoint x="1510" as="sourcePoint" />
            <mxPoint x="1640" as="targetPoint" />
          </mxGeometry>
        </mxCell>
        <mxCell id="GxN8AK2Fk8kTaYo9k1js-93" value="output feature map" style="edgeLabel;resizable=0;html=1;;align=center;verticalAlign=middle;" connectable="0" vertex="1" parent="GxN8AK2Fk8kTaYo9k1js-92">
          <mxGeometry relative="1" as="geometry" />
        </mxCell>
        <mxCell id="GxN8AK2Fk8kTaYo9k1js-94" value="extracted patches from input feature map" style="ellipse;whiteSpace=wrap;html=1;" vertex="1" parent="1">
          <mxGeometry x="1670" y="-40" width="170" height="80" as="geometry" />
        </mxCell>
        <mxCell id="GxN8AK2Fk8kTaYo9k1js-96" value="" style="endArrow=classic;html=1;rounded=0;exitX=1;exitY=0.5;exitDx=0;exitDy=0;" edge="1" parent="1" source="GxN8AK2Fk8kTaYo9k1js-3">
          <mxGeometry width="50" height="50" relative="1" as="geometry">
            <mxPoint x="1350" y="370" as="sourcePoint" />
            <mxPoint x="1420" y="370" as="targetPoint" />
          </mxGeometry>
        </mxCell>
        <mxCell id="GxN8AK2Fk8kTaYo9k1js-97" value="output of conv2D&lt;div&gt;is a &lt;b&gt;response map&lt;/b&gt;&lt;/div&gt;&lt;div&gt;of the filter over the input&lt;/div&gt;" style="shape=delay;whiteSpace=wrap;html=1;" vertex="1" parent="1">
          <mxGeometry x="1420" y="340" width="130" height="60" as="geometry" />
        </mxCell>
        <mxCell id="GxN8AK2Fk8kTaYo9k1js-98" value="" style="endArrow=classic;html=1;rounded=0;exitX=1;exitY=0.5;exitDx=0;exitDy=0;entryX=0;entryY=0.5;entryDx=0;entryDy=0;" edge="1" parent="1" source="GxN8AK2Fk8kTaYo9k1js-91" target="GxN8AK2Fk8kTaYo9k1js-99">
          <mxGeometry width="50" height="50" relative="1" as="geometry">
            <mxPoint x="1890" y="120" as="sourcePoint" />
            <mxPoint x="1960" y="110" as="targetPoint" />
          </mxGeometry>
        </mxCell>
        <mxCell id="GxN8AK2Fk8kTaYo9k1js-99" value="Contributes to the parameters of conv&lt;div&gt;(filter_height * filter_width * input_chan * num_filters) + num_filters (for the bias)&lt;/div&gt;" style="rounded=0;whiteSpace=wrap;html=1;" vertex="1" parent="1">
          <mxGeometry x="1990" y="60" width="340" height="100" as="geometry" />
        </mxCell>
        <mxCell id="GxN8AK2Fk8kTaYo9k1js-100" value="" style="endArrow=classic;html=1;rounded=0;" edge="1" parent="1">
          <mxGeometry width="50" height="50" relative="1" as="geometry">
            <mxPoint x="1010" y="100" as="sourcePoint" />
            <mxPoint x="1170" y="120" as="targetPoint" />
          </mxGeometry>
        </mxCell>
        <mxCell id="GxN8AK2Fk8kTaYo9k1js-102" value="" style="endArrow=classic;html=1;rounded=0;" edge="1" parent="1">
          <mxGeometry width="50" height="50" relative="1" as="geometry">
            <mxPoint x="1010" y="100" as="sourcePoint" />
            <mxPoint x="1140" y="190" as="targetPoint" />
          </mxGeometry>
        </mxCell>
        <mxCell id="GxN8AK2Fk8kTaYo9k1js-103" value="Each patch is transformed into a 1D vector (output_depth,) which is tensor product with learned weight matrix - &lt;b&gt;convolution kernel&lt;/b&gt;" style="rounded=1;whiteSpace=wrap;html=1;" vertex="1" parent="1">
          <mxGeometry x="830" y="70" width="170" height="80" as="geometry" />
        </mxCell>
        <mxCell id="GxN8AK2Fk8kTaYo9k1js-104" value="&lt;b&gt;Padding &lt;/b&gt;adds additional&lt;div&gt;space to reduce dimension shrinking&lt;/div&gt;" style="whiteSpace=wrap;html=1;shape=mxgraph.basic.cloud_callout" vertex="1" parent="1">
          <mxGeometry x="1420" y="-140" width="300" height="110" as="geometry" />
        </mxCell>
        <mxCell id="GxN8AK2Fk8kTaYo9k1js-105" value="&lt;b&gt;Strides - &lt;/b&gt;distance between two successive windows in convolution" style="shape=callout;whiteSpace=wrap;html=1;perimeter=calloutPerimeter;" vertex="1" parent="1">
          <mxGeometry x="1450" y="-230" width="220" height="80" as="geometry" />
        </mxCell>
        <mxCell id="GxN8AK2Fk8kTaYo9k1js-106" value="" style="endArrow=classic;html=1;rounded=0;exitX=0.015;exitY=0.4;exitDx=0;exitDy=0;exitPerimeter=0;" edge="1" parent="1" source="GxN8AK2Fk8kTaYo9k1js-104">
          <mxGeometry relative="1" as="geometry">
            <mxPoint x="1180" y="-110" as="sourcePoint" />
            <mxPoint x="1290" y="-96" as="targetPoint" />
          </mxGeometry>
        </mxCell>
        <mxCell id="GxN8AK2Fk8kTaYo9k1js-107" value="&lt;b&gt;Same&lt;/b&gt;" style="edgeLabel;resizable=0;html=1;;align=center;verticalAlign=middle;" connectable="0" vertex="1" parent="GxN8AK2Fk8kTaYo9k1js-106">
          <mxGeometry relative="1" as="geometry" />
        </mxCell>
        <mxCell id="GxN8AK2Fk8kTaYo9k1js-108" value="" style="endArrow=classic;html=1;rounded=0;exitX=0.993;exitY=0.4;exitDx=0;exitDy=0;exitPerimeter=0;" edge="1" parent="1" source="GxN8AK2Fk8kTaYo9k1js-104">
          <mxGeometry relative="1" as="geometry">
            <mxPoint x="1770" y="-90" as="sourcePoint" />
            <mxPoint x="1870" y="-96" as="targetPoint" />
          </mxGeometry>
        </mxCell>
        <mxCell id="GxN8AK2Fk8kTaYo9k1js-109" value="&lt;b&gt;Valid&lt;/b&gt;" style="edgeLabel;resizable=0;html=1;;align=center;verticalAlign=middle;" connectable="0" vertex="1" parent="GxN8AK2Fk8kTaYo9k1js-108">
          <mxGeometry relative="1" as="geometry" />
        </mxCell>
        <mxCell id="GxN8AK2Fk8kTaYo9k1js-110" value="Keep output size" style="rounded=1;whiteSpace=wrap;html=1;" vertex="1" parent="1">
          <mxGeometry x="1161" y="-130" width="120" height="60" as="geometry" />
        </mxCell>
        <mxCell id="GxN8AK2Fk8kTaYo9k1js-111" value="No padding - valid window locations only" style="rounded=1;whiteSpace=wrap;html=1;" vertex="1" parent="1">
          <mxGeometry x="1870" y="-130" width="120" height="60" as="geometry" />
        </mxCell>
        <mxCell id="GxN8AK2Fk8kTaYo9k1js-112" value="" style="endArrow=classic;html=1;rounded=0;" edge="1" parent="1">
          <mxGeometry relative="1" as="geometry">
            <mxPoint x="1670" y="-210" as="sourcePoint" />
            <mxPoint x="1870" y="-210" as="targetPoint" />
          </mxGeometry>
        </mxCell>
        <mxCell id="GxN8AK2Fk8kTaYo9k1js-113" value="&lt;b&gt;&lt;font style=&quot;font-size: 12px;&quot;&gt;Strided convolutions&lt;/font&gt;&lt;/b&gt;" style="edgeLabel;resizable=0;html=1;;align=center;verticalAlign=middle;" connectable="0" vertex="1" parent="GxN8AK2Fk8kTaYo9k1js-112">
          <mxGeometry relative="1" as="geometry" />
        </mxCell>
        <mxCell id="GxN8AK2Fk8kTaYo9k1js-115" value="&lt;b&gt;convolutions&lt;/b&gt; with &lt;b&gt;stride&lt;/b&gt; &lt;b&gt;higher&lt;/b&gt; than 1" style="rounded=1;whiteSpace=wrap;html=1;" vertex="1" parent="1">
          <mxGeometry x="1870" y="-240" width="120" height="60" as="geometry" />
        </mxCell>
        <mxCell id="GxN8AK2Fk8kTaYo9k1js-116" value="" style="endArrow=classic;html=1;rounded=0;" edge="1" parent="1">
          <mxGeometry relative="1" as="geometry">
            <mxPoint x="1310" y="490" as="sourcePoint" />
            <mxPoint x="1460" y="490" as="targetPoint" />
          </mxGeometry>
        </mxCell>
        <mxCell id="GxN8AK2Fk8kTaYo9k1js-117" value="&lt;b&gt;operation&lt;/b&gt;" style="edgeLabel;resizable=0;html=1;;align=center;verticalAlign=middle;" connectable="0" vertex="1" parent="GxN8AK2Fk8kTaYo9k1js-116">
          <mxGeometry relative="1" as="geometry" />
        </mxCell>
        <mxCell id="GxN8AK2Fk8kTaYo9k1js-120" value="aggressively downsample feature maps" style="rounded=1;whiteSpace=wrap;html=1;" vertex="1" parent="1">
          <mxGeometry x="1460" y="460" width="120" height="60" as="geometry" />
        </mxCell>
        <mxCell id="GxN8AK2Fk8kTaYo9k1js-121" value="" style="endArrow=classic;html=1;rounded=0;exitX=0.903;exitY=1.052;exitDx=0;exitDy=0;exitPerimeter=0;" edge="1" parent="1" source="GxN8AK2Fk8kTaYo9k1js-4">
          <mxGeometry width="50" height="50" relative="1" as="geometry">
            <mxPoint x="1340" y="610" as="sourcePoint" />
            <mxPoint x="1480" y="600" as="targetPoint" />
          </mxGeometry>
        </mxCell>
        <mxCell id="GxN8AK2Fk8kTaYo9k1js-122" value="&lt;font style=&quot;font-size: 12px;&quot;&gt;Solves two issues&lt;/font&gt;" style="edgeLabel;html=1;align=center;verticalAlign=middle;resizable=0;points=[];" vertex="1" connectable="0" parent="GxN8AK2Fk8kTaYo9k1js-121">
          <mxGeometry x="-0.1761" y="1" relative="1" as="geometry">
            <mxPoint as="offset" />
          </mxGeometry>
        </mxCell>
        <mxCell id="GxN8AK2Fk8kTaYo9k1js-123" value="" style="shape=partialRectangle;whiteSpace=wrap;html=1;bottom=1;right=1;left=1;top=0;fillColor=none;routingCenterX=-0.5;direction=west;" vertex="1" parent="1">
          <mxGeometry x="1420" y="600" width="120" height="60" as="geometry" />
        </mxCell>
        <mxCell id="GxN8AK2Fk8kTaYo9k1js-124" value="keep totality of input" style="rounded=1;whiteSpace=wrap;html=1;" vertex="1" parent="1">
          <mxGeometry x="1340" y="660" width="120" height="60" as="geometry" />
        </mxCell>
        <mxCell id="GxN8AK2Fk8kTaYo9k1js-125" value="large windows destroy information" style="rounded=1;whiteSpace=wrap;html=1;" vertex="1" parent="1">
          <mxGeometry x="1530" y="660" width="120" height="60" as="geometry" />
        </mxCell>
        <mxCell id="GxN8AK2Fk8kTaYo9k1js-126" value="" style="endArrow=classic;html=1;rounded=0;exitX=0.5;exitY=1;exitDx=0;exitDy=0;" edge="1" parent="1" source="GxN8AK2Fk8kTaYo9k1js-124">
          <mxGeometry width="50" height="50" relative="1" as="geometry">
            <mxPoint x="1410" y="810" as="sourcePoint" />
            <mxPoint x="1430" y="790" as="targetPoint" />
          </mxGeometry>
        </mxCell>
        <mxCell id="GxN8AK2Fk8kTaYo9k1js-127" value="" style="endArrow=classic;html=1;rounded=0;exitX=0.5;exitY=1;exitDx=0;exitDy=0;" edge="1" parent="1" source="GxN8AK2Fk8kTaYo9k1js-125">
          <mxGeometry width="50" height="50" relative="1" as="geometry">
            <mxPoint x="1510" y="810" as="sourcePoint" />
            <mxPoint x="1530" y="790" as="targetPoint" />
          </mxGeometry>
        </mxCell>
        <mxCell id="GxN8AK2Fk8kTaYo9k1js-128" value="more &lt;b&gt;informative&lt;/b&gt; to look at &lt;b&gt;maximal presence&lt;/b&gt; of features than &lt;b&gt;average presence&lt;/b&gt;" style="rounded=1;whiteSpace=wrap;html=1;" vertex="1" parent="1">
          <mxGeometry x="1400" y="790" width="170" height="110" as="geometry" />
        </mxCell>
        <mxCell id="GxN8AK2Fk8kTaYo9k1js-137" value="" style="endArrow=classic;html=1;rounded=0;exitX=0.5;exitY=0;exitDx=0;exitDy=0;entryX=0.597;entryY=1.022;entryDx=0;entryDy=0;entryPerimeter=0;" edge="1" parent="1" source="2c924340bb9dbf6c-4" target="GxN8AK2Fk8kTaYo9k1js-139">
          <mxGeometry relative="1" as="geometry">
            <mxPoint x="760" y="440" as="sourcePoint" />
            <mxPoint x="750" y="350" as="targetPoint" />
          </mxGeometry>
        </mxCell>
        <mxCell id="GxN8AK2Fk8kTaYo9k1js-138" value="&lt;font style=&quot;font-size: 12px;&quot;&gt;2 ways to use pretrained model&lt;/font&gt;" style="edgeLabel;resizable=0;html=1;;align=center;verticalAlign=middle;" connectable="0" vertex="1" parent="GxN8AK2Fk8kTaYo9k1js-137">
          <mxGeometry relative="1" as="geometry" />
        </mxCell>
        <mxCell id="GxN8AK2Fk8kTaYo9k1js-139" value="" style="shape=partialRectangle;whiteSpace=wrap;html=1;bottom=1;right=1;left=1;top=0;fillColor=none;routingCenterX=-0.5;direction=north;" vertex="1" parent="1">
          <mxGeometry x="650" y="270" width="60" height="120" as="geometry" />
        </mxCell>
        <mxCell id="GxN8AK2Fk8kTaYo9k1js-140" value="&lt;b&gt;feature extraction&lt;/b&gt;&lt;br&gt;use representations&lt;div&gt;learned by pretrained&lt;/div&gt;" style="rounded=1;whiteSpace=wrap;html=1;" vertex="1" parent="1">
          <mxGeometry x="530" y="211" width="120" height="60" as="geometry" />
        </mxCell>
        <mxCell id="GxN8AK2Fk8kTaYo9k1js-141" value="&lt;b&gt;fine-tuning&lt;/b&gt;" style="rounded=1;whiteSpace=wrap;html=1;" vertex="1" parent="1">
          <mxGeometry x="530" y="390" width="120" height="60" as="geometry" />
        </mxCell>
        <mxCell id="GxN8AK2Fk8kTaYo9k1js-142" value="&lt;b&gt;Convolutional&lt;/b&gt;&lt;div&gt;&lt;b&gt;Base&lt;/b&gt;&lt;/div&gt;" style="ellipse;shape=cloud;whiteSpace=wrap;html=1;" vertex="1" parent="1">
          <mxGeometry x="530" y="290" width="120" height="80" as="geometry" />
        </mxCell>
        <mxCell id="GxN8AK2Fk8kTaYo9k1js-143" value="" style="endArrow=classic;startArrow=classic;html=1;rounded=0;exitX=0.4;exitY=0.1;exitDx=0;exitDy=0;exitPerimeter=0;entryX=0.5;entryY=1;entryDx=0;entryDy=0;" edge="1" parent="1" source="GxN8AK2Fk8kTaYo9k1js-142" target="GxN8AK2Fk8kTaYo9k1js-140">
          <mxGeometry width="50" height="50" relative="1" as="geometry">
            <mxPoint x="470" y="300" as="sourcePoint" />
            <mxPoint x="500" y="270" as="targetPoint" />
          </mxGeometry>
        </mxCell>
        <mxCell id="GxN8AK2Fk8kTaYo9k1js-144" value="" style="endArrow=classic;startArrow=classic;html=1;rounded=0;exitX=0.5;exitY=0;exitDx=0;exitDy=0;entryX=0.55;entryY=0.95;entryDx=0;entryDy=0;entryPerimeter=0;" edge="1" parent="1" source="GxN8AK2Fk8kTaYo9k1js-141" target="GxN8AK2Fk8kTaYo9k1js-142">
          <mxGeometry width="50" height="50" relative="1" as="geometry">
            <mxPoint x="460" y="390" as="sourcePoint" />
            <mxPoint x="470" y="350" as="targetPoint" />
          </mxGeometry>
        </mxCell>
        <mxCell id="GxN8AK2Fk8kTaYo9k1js-145" value="&lt;h1 style=&quot;margin-top: 0px;&quot;&gt;Pretrained&lt;/h1&gt;&lt;p&gt;using a model that was previously trained on a large dataset, typically large-scale image-classification task&lt;/p&gt;" style="text;html=1;whiteSpace=wrap;overflow=hidden;rounded=0;" vertex="1" parent="1">
          <mxGeometry x="330" y="260" width="180" height="120" as="geometry" />
        </mxCell>
        <mxCell id="GxN8AK2Fk8kTaYo9k1js-146" value="" style="endArrow=classic;html=1;rounded=0;entryX=0.5;entryY=0;entryDx=0;entryDy=0;" edge="1" parent="1" target="GxN8AK2Fk8kTaYo9k1js-148">
          <mxGeometry relative="1" as="geometry">
            <mxPoint x="620" y="450" as="sourcePoint" />
            <mxPoint x="620" y="530" as="targetPoint" />
          </mxGeometry>
        </mxCell>
        <mxCell id="GxN8AK2Fk8kTaYo9k1js-147" value="&lt;b&gt;Unfreeze&lt;/b&gt; the base" style="edgeLabel;resizable=0;html=1;;align=center;verticalAlign=middle;" connectable="0" vertex="1" parent="GxN8AK2Fk8kTaYo9k1js-146">
          <mxGeometry relative="1" as="geometry" />
        </mxCell>
        <mxCell id="GxN8AK2Fk8kTaYo9k1js-148" value="Jointly &lt;b&gt;train&lt;/b&gt; &lt;b&gt;new&lt;/b&gt; part and &lt;b&gt;base&lt;/b&gt;" style="rounded=1;whiteSpace=wrap;html=1;" vertex="1" parent="1">
          <mxGeometry x="550" y="540" width="120" height="60" as="geometry" />
        </mxCell>
        <mxCell id="GxN8AK2Fk8kTaYo9k1js-149" value="" style="endArrow=classic;html=1;rounded=0;exitX=0.602;exitY=1.021;exitDx=0;exitDy=0;exitPerimeter=0;entryX=0.409;entryY=0.014;entryDx=0;entryDy=0;entryPerimeter=0;" edge="1" parent="1" source="2c924340bb9dbf6c-4" target="GxN8AK2Fk8kTaYo9k1js-160">
          <mxGeometry relative="1" as="geometry">
            <mxPoint x="880" y="820" as="sourcePoint" />
            <mxPoint x="894" y="870" as="targetPoint" />
          </mxGeometry>
        </mxCell>
        <mxCell id="GxN8AK2Fk8kTaYo9k1js-150" value="&lt;b&gt;Data preprocessing&lt;/b&gt;" style="edgeLabel;resizable=0;html=1;;align=center;verticalAlign=middle;" connectable="0" vertex="1" parent="GxN8AK2Fk8kTaYo9k1js-149">
          <mxGeometry relative="1" as="geometry" />
        </mxCell>
        <mxCell id="GxN8AK2Fk8kTaYo9k1js-160" value="&lt;ul&gt;&lt;li&gt;&lt;font style=&quot;font-size: 14px;&quot;&gt;&lt;b style=&quot;&quot;&gt;Read&lt;/b&gt; picture files&lt;/font&gt;&lt;/li&gt;&lt;li&gt;&lt;font style=&quot;font-size: 14px;&quot;&gt;Decode &lt;b&gt;JPEG&lt;/b&gt; to &lt;b&gt;RGB&lt;/b&gt; grids&lt;/font&gt;&lt;/li&gt;&lt;li&gt;&lt;font style=&quot;font-size: 14px;&quot;&gt;Convert into &lt;b&gt;floating-point tensors&lt;/b&gt;&lt;/font&gt;&lt;/li&gt;&lt;li&gt;&lt;font style=&quot;font-size: 14px;&quot;&gt;Resize to a &lt;b&gt;shared size&lt;/b&gt;&lt;/font&gt;&lt;/li&gt;&lt;li&gt;&lt;font style=&quot;font-size: 14px;&quot;&gt;Pack into &lt;b style=&quot;&quot;&gt;batches&lt;/b&gt;&lt;/font&gt;&lt;/li&gt;&lt;/ul&gt;" style="text;strokeColor=none;fillColor=none;html=1;whiteSpace=wrap;verticalAlign=middle;overflow=hidden;" vertex="1" parent="1">
          <mxGeometry x="780" y="900" width="270" height="120" as="geometry" />
        </mxCell>
        <mxCell id="GxN8AK2Fk8kTaYo9k1js-161" value="" style="endArrow=classic;html=1;rounded=0;exitX=0.5;exitY=1;exitDx=0;exitDy=0;entryX=0.5;entryY=0;entryDx=0;entryDy=0;" edge="1" parent="1" source="GxN8AK2Fk8kTaYo9k1js-160" target="GxN8AK2Fk8kTaYo9k1js-163">
          <mxGeometry relative="1" as="geometry">
            <mxPoint x="870" y="1060" as="sourcePoint" />
            <mxPoint x="915" y="1130" as="targetPoint" />
          </mxGeometry>
        </mxCell>
        <mxCell id="GxN8AK2Fk8kTaYo9k1js-162" value="&lt;b&gt;Data augmentation&lt;/b&gt;" style="edgeLabel;resizable=0;html=1;;align=center;verticalAlign=middle;" connectable="0" vertex="1" parent="GxN8AK2Fk8kTaYo9k1js-161">
          <mxGeometry relative="1" as="geometry" />
        </mxCell>
        <mxCell id="GxN8AK2Fk8kTaYo9k1js-163" value="generating more training data from existing training samples" style="rounded=1;whiteSpace=wrap;html=1;" vertex="1" parent="1">
          <mxGeometry x="830" y="1150" width="170" height="70" as="geometry" />
        </mxCell>
        <mxCell id="GxN8AK2Fk8kTaYo9k1js-164" value="" style="endArrow=classic;html=1;rounded=0;" edge="1" parent="1" source="GxN8AK2Fk8kTaYo9k1js-142">
          <mxGeometry relative="1" as="geometry">
            <mxPoint x="310" y="500" as="sourcePoint" />
            <mxPoint x="390" y="450" as="targetPoint" />
          </mxGeometry>
        </mxCell>
        <mxCell id="GxN8AK2Fk8kTaYo9k1js-165" value="&lt;b&gt;args for base&lt;/b&gt;" style="edgeLabel;resizable=0;html=1;;align=center;verticalAlign=middle;" connectable="0" vertex="1" parent="GxN8AK2Fk8kTaYo9k1js-164">
          <mxGeometry relative="1" as="geometry" />
        </mxCell>
        <mxCell id="GxN8AK2Fk8kTaYo9k1js-166" value="&lt;b&gt;include_top&lt;/b&gt;&lt;div&gt;include or not the densely connected classifier&lt;/div&gt;" style="rounded=1;whiteSpace=wrap;html=1;" vertex="1" parent="1">
          <mxGeometry x="270" y="440" width="120" height="60" as="geometry" />
        </mxCell>
        <mxCell id="GxN8AK2Fk8kTaYo9k1js-167" value="" style="endArrow=classic;html=1;rounded=0;" edge="1" parent="1">
          <mxGeometry relative="1" as="geometry">
            <mxPoint x="330" y="280" as="sourcePoint" />
            <mxPoint x="140" y="280" as="targetPoint" />
          </mxGeometry>
        </mxCell>
        <mxCell id="GxN8AK2Fk8kTaYo9k1js-168" value="&lt;b&gt;Fine Tune steps&lt;/b&gt;" style="edgeLabel;resizable=0;html=1;;align=center;verticalAlign=middle;" connectable="0" vertex="1" parent="GxN8AK2Fk8kTaYo9k1js-167">
          <mxGeometry relative="1" as="geometry" />
        </mxCell>
        <mxCell id="GxN8AK2Fk8kTaYo9k1js-169" value="&lt;ol&gt;&lt;li&gt;&lt;font style=&quot;font-size: 13px;&quot;&gt;&lt;b&gt;Add&lt;/b&gt; custom network on &lt;b&gt;top&lt;/b&gt; of &lt;b&gt;base&lt;/b&gt;&lt;/font&gt;&lt;/li&gt;&lt;li&gt;&lt;font style=&quot;font-size: 13px;&quot;&gt;&lt;b&gt;Freeze&lt;/b&gt; the base&lt;/font&gt;&lt;/li&gt;&lt;li&gt;&lt;font style=&quot;font-size: 13px;&quot;&gt;&lt;b&gt;Train&lt;/b&gt; your additions&lt;/font&gt;&lt;/li&gt;&lt;li&gt;&lt;font style=&quot;font-size: 13px;&quot;&gt;&lt;b&gt;Unfreeze&lt;/b&gt; the &lt;b&gt;base&lt;/b&gt;&lt;/font&gt;&lt;/li&gt;&lt;li&gt;&lt;font style=&quot;font-size: 13px;&quot;&gt;&lt;b&gt;Jointly&lt;/b&gt; train both&lt;/font&gt;&lt;/li&gt;&lt;/ol&gt;" style="text;strokeColor=none;fillColor=none;html=1;whiteSpace=wrap;verticalAlign=middle;overflow=hidden;" vertex="1" parent="1">
          <mxGeometry x="-150" y="230" width="270" height="110" as="geometry" />
        </mxCell>
      </root>
    </mxGraphModel>
  </diagram>
</mxfile>
